<?xml version="1.0" encoding="utf-8"?>
<!-- Generator: Adobe Illustrator 25.4.1, SVG Export Plug-In . SVG Version: 6.00 Build 0)  -->
<svg version="1.1" id="Layer_1" xmlns="http://www.w3.org/2000/svg" xmlns:xlink="http://www.w3.org/1999/xlink" x="0px" y="0px"
	 viewBox="770 800 1480 420" style="enable-background:new 0 0 3000 2000;" xml:space="preserve">
<style type="text/css">
	.st0{fill:#63B3ED;}
	.st1{fill:#FFFFFF;}
</style>
<g>
	<g>
		<g>
			<path class="st0" d="M1057.51,844.03c-7.75,6.01-11.42,15.28-10.63,24.32c0.56,6.39-2.34,12.59-7.41,16.52l-1.11,0.86
				c-4.72,3.65-10.83,4.8-16.64,3.4c-6.87-1.65-14.48-0.04-20.31,5.3c-3.73,3.42-6.05,7.96-6.83,12.75c-0.81,5-4.11,9.24-8.72,11.34
				l-1.58,0.72c-4.01,1.83-8.62,1.81-12.64,0c-3.49-1.57-7.55-1.88-11.46-0.56c-3.95,1.33-7.02,4.08-8.84,7.49
				c-2.5,4.68-6.71,8.21-11.88,9.38l-1.23,0.28c-4.49,1.02-9.23,0.42-13.26-1.8c-2.52-1.39-5.57-1.84-8.56-1.01
				c-2.63,0.73-4.79,2.31-6.26,4.38c-2.66,3.73-6.94,5.98-11.5,6.42l-1.43,0.14c-3.55,0.34-7-0.8-9.92-2.85
				c-1.67-1.17-3.76-1.73-5.94-1.43c-2.12,0.29-3.93,1.35-5.22,2.86c-2.4,2.83-5.98,4.38-9.68,4.53h0
				c-2.96,0.11-5.97-0.59-8.32-2.38c-1.22-0.93-2.8-1.39-4.44-1.16c-1.07,0.15-2.03,0.57-2.83,1.19c-2.63,2.04-5.79,3.26-9.11,3.03
				l-3.93-0.27c-2.19-0.15-4.21-0.99-6.12-2.07c-0.86-0.48-1.95-0.58-3.01-0.1c-0.97,0.44-1.67,1.4-1.81,2.46
				c-0.29,2.25,1.6,3.98,3.67,3.69c0.2-0.03,0.38-0.07,0.57-0.13c2.65-0.87,5.41-1.36,8.19-1.17l0.91,0.06
				c3.96,0.27,7.63,1.88,10.89,4.16c1.19,0.83,2.67,1.23,4.22,1.02c1.14-0.16,2.15-0.63,2.98-1.31c2.42-2.01,5.5-3.05,8.65-3.18l0,0
				c3.76-0.15,7.36,1.22,10.29,3.58c1.73,1.4,4.02,2.1,6.4,1.77c1.78-0.25,3.36-1.04,4.57-2.19c2.92-2.76,6.51-4.7,10.51-5.09
				l0.69-0.07c4.49-0.44,9.09,0.77,12.48,3.74c2.8,2.45,6.72,3.49,10.57,2.43c2.63-0.73,4.79-2.31,6.26-4.37
				c2.78-3.89,7.09-6.41,11.75-7.46l0,0c5.48-1.24,11.14,0.08,15.75,3.28c3.94,2.74,9.08,3.64,13.98,1.99
				c4.94-1.67,8.5-5.54,9.96-10.16c1.35-4.26,4.26-7.86,8.33-9.71l1.04-0.47c4.69-2.14,10.23-1.86,14.49,1.04
				c7.39,5.02,17.4,5.28,25.18-0.12c6.09-4.23,9.41-10.94,9.55-17.82c0.13-5.99,2.72-11.66,7.46-15.34l0.85-0.66
				c5.16-4,12.01-5.37,18.17-3.21c8.75,3.06,18.83,1.67,26.57-4.59c12.29-9.93,13.86-28.22,3.12-40.11
				C1085.38,836.7,1068.83,835.25,1057.51,844.03z"/>
			<path class="st0" d="M1014.02,822.66c0.07-0.02,0.14-0.05,0.21-0.07c0.29-0.08,0.57-0.15,0.86-0.21
				c8.16-1.81,16.41,2.48,19.68,10.03c0.06,0.18,0.13,0.37,0.2,0.55c0.14,0.32,0.26,0.66,0.38,1c0.09,0.24,0.17,0.5,0.24,0.76
				l0.03,0.12c1.31,4.6,0.76,9.7-1.96,14.08c-3.95,6.39-11.29,9.37-18.26,8.07c-4.02-0.76-8.14,0.79-10.87,3.82l-0.6,0.67
				c-2.37,2.65-3.35,6.18-2.98,9.7c0.4,3.82-0.96,7.76-4.03,10.55c-3.04,2.75-7.06,3.72-10.8,2.98c-2.54-0.5-5.16-0.44-7.6,0.24
				c-1.74,0.48-3.41,1.27-4.9,2.37c-3.06,2.25-5.39,5.44-6.18,9.15c-0.41,1.96-1.48,3.8-3.16,5.16c-2.46,1.99-5.65,2.48-8.45,1.58
				c-3.41-1.08-7.13-0.51-10.26,1.24l-0.48,0.26c-2.79,1.56-4.78,4.1-6.03,7.04c-0.53,1.22-1.41,2.29-2.64,3.04
				c-1.62,1-3.51,1.19-5.21,0.74c-2.22-0.62-4.54-0.66-6.71-0.06c-0.65,0.18-1.29,0.42-1.9,0.71c-2.25,1.09-4.16,2.82-5.28,5.05
				c-0.38,0.75-0.97,1.42-1.75,1.89c-1.06,0.65-2.27,0.84-3.39,0.6c-3.09-0.62-6.27-0.64-9.24,0.43l-0.68,0.24
				c-2.08,0.73-3.92,1.96-5.58,3.44c-0.12,0.1-0.24,0.2-0.38,0.28c-1.4,0.87-3.33,0.21-3.83-1.52c-0.24-0.82-0.04-1.73,0.52-2.36
				c0.63-0.68,1.45-0.96,2.22-0.88c1.73,0.18,3.48,0.15,5.11-0.43l2.95-1.05c2.48-0.88,4.4-2.78,5.66-5.09
				c0.38-0.69,0.95-1.32,1.68-1.76c1.12-0.68,2.41-0.85,3.6-0.56c1.58,0.38,3.21,0.3,4.77-0.12c0.7-0.19,1.38-0.46,2.03-0.77
				c2.66-1.28,4.76-3.54,5.61-6.36c0.45-1.5,1.44-2.84,2.87-3.73c1.49-0.9,3.2-1.16,4.78-0.84c2.76,0.56,5.63,0.31,8.11-1.07l1-0.56
				c3.18-1.77,5.57-4.76,6.32-8.31c0.42-1.97,1.49-3.81,3.17-5.17c1.91-1.56,4.26-2.19,6.54-1.98c3.64,0.34,7.27-0.73,10.22-2.9
				l0.8-0.58c3.39-2.5,5.34-6.39,5.67-10.59c0.24-3.05,1.6-6.02,4.05-8.24c2.43-2.19,5.48-3.26,8.51-3.22c3.5,0.04,6.86-1.41,9.19-4
				l0.92-1.03c2.68-2.97,3.74-7.1,2.74-11c-0.95-3.74-0.7-7.76,0.94-11.44C1004.77,827.38,1009.12,823.97,1014.02,822.66z"/>
			<path class="st0" d="M966.19,817.81c0.04-0.02,0.07-0.05,0.11-0.07c0.15-0.09,0.3-0.17,0.45-0.25c4.28-2.3,9.57-1.2,12.59,2.51
				c0.06,0.09,0.13,0.18,0.2,0.27c0.13,0.16,0.25,0.33,0.37,0.5c0.09,0.12,0.17,0.26,0.25,0.39l0.04,0.06
				c1.46,2.37,1.95,5.31,1.12,8.19c-1.2,4.2-4.84,7.02-8.94,7.39c-2.37,0.21-4.43,1.72-5.48,3.85l-0.23,0.47
				c-0.91,1.85-0.9,3.98-0.14,5.9c0.82,2.07,0.69,4.5-0.59,6.54c-1.27,2.02-3.36,3.2-5.57,3.37c-1.5,0.12-2.96,0.57-4.21,1.33
				c-0.9,0.54-1.7,1.25-2.37,2.1c-1.36,1.74-2.16,3.89-2.02,6.09c0.08,1.16-0.23,2.36-0.96,3.39c-1.06,1.5-2.77,2.28-4.48,2.22
				c-2.08-0.07-4.07,0.84-5.55,2.31l-0.22,0.22c-1.32,1.31-2.03,3.05-2.26,4.89c-0.11,0.76-0.43,1.5-1,2.12
				c-0.75,0.81-1.77,1.22-2.8,1.24c-1.34,0-2.64,0.35-3.77,1.02c-0.33,0.2-0.65,0.44-0.95,0.7c-1.09,0.96-1.88,2.23-2.16,3.66
				c-0.1,0.48-0.32,0.95-0.68,1.33c-0.49,0.53-1.14,0.83-1.8,0.87c-1.82,0.14-3.61,0.63-5.1,1.7l-0.34,0.24
				c-1.05,0.74-1.89,1.72-2.58,2.8c-0.05,0.07-0.1,0.15-0.17,0.22c-0.65,0.71-1.83,0.64-2.38-0.25c-0.26-0.42-0.29-0.96-0.08-1.41
				c0.24-0.48,0.66-0.77,1.1-0.84c1-0.17,1.97-0.46,2.79-1.05l1.48-1.05c1.25-0.89,2.02-2.25,2.36-3.74
				c0.11-0.45,0.32-0.89,0.66-1.25c0.52-0.56,1.22-0.86,1.93-0.88c0.94-0.04,1.85-0.34,2.65-0.82c0.36-0.22,0.7-0.48,1.02-0.75
				c1.28-1.13,2.1-2.73,2.14-4.44c0.02-0.91,0.36-1.82,1.02-2.54c0.69-0.74,1.6-1.15,2.54-1.22c1.63-0.12,3.2-0.72,4.37-1.88
				l0.47-0.47c1.5-1.49,2.37-3.54,2.23-5.64c-0.08-1.17,0.23-2.36,0.96-3.39c0.82-1.17,2.04-1.9,3.35-2.14
				c2.09-0.39,3.95-1.56,5.26-3.23l0.36-0.45c1.5-1.93,1.98-4.42,1.5-6.82c-0.34-1.74-0.05-3.62,0.97-5.25
				c1.01-1.61,2.55-2.69,4.26-3.14c1.96-0.53,3.61-1.87,4.51-3.69l0.35-0.72c1.03-2.09,0.97-4.56-0.2-6.59
				c-1.12-1.94-1.61-4.23-1.28-6.55C961.76,821.91,963.65,819.31,966.19,817.81z"/>
			<path class="st0" d="M789.88,1010.4c9.08,3.71,18.94,2.25,26.38-2.96c5.25-3.68,12.07-4.27,18.01-1.84l1.29,0.53
				c5.52,2.26,9.57,6.98,11.26,12.7c2.01,6.78,7.2,12.56,14.75,14.94c4.82,1.52,9.91,1.26,14.45-0.46
				c4.73-1.8,10.05-1.06,14.18,1.88l1.41,1.01c3.59,2.56,5.88,6.56,6.32,10.94c0.38,3.81,2.14,7.48,5.24,10.21
				c3.13,2.76,7.04,4.04,10.9,3.91c5.3-0.18,10.46,1.7,14.07,5.6l0.85,0.92c3.13,3.38,4.98,7.78,5.07,12.39
				c0.06,2.88,1.19,5.74,3.41,7.92c1.94,1.92,4.4,2.99,6.92,3.23c4.56,0.44,8.65,3.02,11.31,6.75l0.84,1.17
				c2.07,2.9,2.8,6.46,2.49,10.01c-0.18,2.03,0.38,4.12,1.73,5.86c1.31,1.69,3.14,2.73,5.09,3.09c3.65,0.67,6.79,2.98,8.76,6.12l0,0
				c1.58,2.5,2.47,5.46,2.1,8.4c-0.19,1.52,0.19,3.12,1.21,4.43c0.66,0.85,1.51,1.47,2.44,1.85c3.08,1.25,5.72,3.39,7.18,6.37
				l1.73,3.53c0.96,1.97,1.25,4.15,1.27,6.34c0.01,0.99,0.47,1.98,1.42,2.65c0.87,0.62,2.05,0.75,3.04,0.33
				c2.09-0.87,2.65-3.37,1.36-5.02c-0.12-0.16-0.25-0.3-0.4-0.42c-2.08-1.86-3.88-4-5.11-6.51l-0.4-0.82
				c-1.75-3.57-2.19-7.55-1.84-11.51c0.13-1.44-0.27-2.93-1.23-4.17c-0.71-0.91-1.62-1.55-2.62-1.92c-2.95-1.09-5.4-3.24-7.07-5.9
				l0,0c-2-3.18-2.63-6.98-2.05-10.7c0.34-2.2-0.19-4.53-1.66-6.42c-1.11-1.42-2.58-2.39-4.18-2.87c-3.85-1.15-7.33-3.29-9.67-6.56
				l-0.4-0.56c-2.62-3.67-3.88-8.25-3-12.68c0.72-3.64-0.34-7.57-3.19-10.37c-1.94-1.92-4.4-2.99-6.92-3.24
				c-4.76-0.46-9.09-2.93-12.34-6.44l0,0c-3.81-4.12-5.5-9.68-5.03-15.28c0.4-4.78-1.39-9.69-5.27-13.1
				c-3.91-3.45-9.05-4.59-13.78-3.55c-4.37,0.96-8.93,0.24-12.57-2.35l-0.93-0.66c-4.2-3-6.72-7.93-6.35-13.07
				c0.65-8.91-4.13-17.71-12.7-21.74c-6.7-3.16-14.18-2.68-20.21,0.64c-5.25,2.89-11.46,3.48-17.01,1.21l-1-0.41
				c-6.04-2.47-10.66-7.72-11.87-14.13c-1.72-9.11-7.97-17.14-17.26-20.72c-14.75-5.68-31.37,2.11-36.3,17.35
				C769.6,989.92,776.62,1004.98,789.88,1010.4z"/>
			<path class="st0" d="M793.13,1058.74c-0.05-0.05-0.11-0.1-0.17-0.15c-0.21-0.21-0.41-0.43-0.62-0.64
				c-5.65-6.17-6.05-15.45-1.15-22.06c0.13-0.15,0.25-0.29,0.37-0.45c0.21-0.28,0.44-0.56,0.68-0.83c0.16-0.2,0.35-0.39,0.54-0.59
				l0.09-0.09c3.33-3.43,8.02-5.51,13.18-5.34c7.51,0.22,13.76,5.1,16.12,11.78c1.35,3.86,4.75,6.66,8.75,7.5l0.89,0.19
				c3.48,0.73,7.03-0.19,9.89-2.27c3.11-2.26,7.21-3.05,11.15-1.78c3.9,1.26,6.76,4.25,7.98,7.86c0.84,2.45,2.2,4.69,4,6.46
				c1.28,1.27,2.81,2.31,4.5,3.06c3.47,1.52,7.41,1.94,11.01,0.78c1.9-0.62,4.03-0.62,6.05,0.16c2.95,1.14,4.97,3.66,5.6,6.53
				c0.77,3.49,3.13,6.43,6.2,8.27l0.47,0.28c2.75,1.64,5.94,2.09,9.11,1.7c1.32-0.15,2.69,0.08,3.95,0.76
				c1.67,0.91,2.79,2.44,3.25,4.14c0.57,2.23,1.7,4.26,3.3,5.85c0.48,0.47,1.01,0.9,1.57,1.29c2.07,1.41,4.52,2.19,7.01,2.05
				c0.84-0.04,1.71,0.13,2.51,0.57c1.1,0.59,1.86,1.55,2.22,2.64c1.01,2.98,2.58,5.75,5,7.78l0.55,0.47
				c1.68,1.44,3.66,2.42,5.76,3.11c0.15,0.05,0.29,0.11,0.43,0.19c1.45,0.78,1.84,2.78,0.59,4.08c-0.59,0.61-1.48,0.89-2.31,0.73
				c-0.9-0.2-1.55-0.77-1.87-1.48c-0.71-1.59-1.61-3.09-2.93-4.21l-2.38-2.02c-2.01-1.71-4.6-2.42-7.23-2.35
				c-0.79,0.01-1.61-0.16-2.36-0.58c-1.15-0.63-1.94-1.66-2.29-2.84c-0.46-1.56-1.34-2.93-2.49-4.07c-0.51-0.51-1.09-0.97-1.69-1.37
				c-2.44-1.66-5.45-2.35-8.31-1.68c-1.53,0.36-3.18,0.18-4.67-0.62c-1.53-0.84-2.6-2.19-3.12-3.72c-0.89-2.67-2.55-5.03-4.99-6.49
				l-0.98-0.59c-3.12-1.86-6.91-2.45-10.35-1.32c-1.92,0.62-4.04,0.61-6.06-0.17c-2.3-0.88-4.03-2.6-4.98-4.68
				c-1.53-3.32-4.27-5.93-7.62-7.4l-0.91-0.4c-3.86-1.69-8.2-1.43-12,0.39c-2.76,1.31-6.01,1.62-9.16,0.61
				c-3.11-1.01-5.56-3.11-7.04-5.76c-1.72-3.05-4.65-5.23-8.06-5.96l-1.35-0.28c-3.92-0.84-8.02,0.31-10.9,3.12
				c-2.76,2.69-6.38,4.48-10.37,4.9C801.83,1064.39,796.71,1062.33,793.13,1058.74z"/>
			<path class="st0" d="M812.84,1102.59c-0.04-0.02-0.08-0.04-0.12-0.06c-0.15-0.08-0.3-0.17-0.45-0.26
				c-4.13-2.56-5.82-7.69-4.12-12.16c0.05-0.1,0.1-0.2,0.14-0.31c0.07-0.19,0.16-0.38,0.25-0.57c0.06-0.14,0.14-0.28,0.21-0.41
				l0.04-0.07c1.32-2.45,3.62-4.34,6.53-5.07c4.24-1.06,8.5,0.68,10.87,4.05c1.36,1.95,3.71,2.97,6.08,2.82l0.52-0.04
				c2.06-0.14,3.9-1.21,5.18-2.83c1.38-1.75,3.55-2.84,5.96-2.76c2.38,0.09,4.45,1.31,5.7,3.14c0.86,1.24,1.97,2.28,3.26,2.98
				c0.92,0.51,1.93,0.85,3,1c2.18,0.31,4.45-0.08,6.29-1.3c0.96-0.65,2.16-0.98,3.41-0.87c1.83,0.17,3.36,1.26,4.16,2.77
				c0.98,1.83,2.76,3.1,4.77,3.65l0.31,0.08c1.79,0.48,3.65,0.23,5.36-0.48c0.72-0.29,1.52-0.38,2.33-0.2
				c1.08,0.24,1.94,0.93,2.47,1.81c0.67,1.16,1.62,2.12,2.77,2.75c0.34,0.19,0.71,0.35,1.08,0.48c1.38,0.46,2.87,0.51,4.25,0.04
				c0.46-0.16,0.98-0.2,1.5-0.07c0.71,0.16,1.28,0.57,1.65,1.13c1.03,1.51,2.35,2.81,4.02,3.57l0.38,0.18
				c1.17,0.54,2.43,0.77,3.72,0.83c0.09,0.01,0.18,0.01,0.27,0.04c0.94,0.21,1.47,1.26,0.98,2.19c-0.23,0.44-0.69,0.73-1.18,0.77
				c-0.54,0.03-0.99-0.19-1.28-0.53c-0.65-0.78-1.39-1.47-2.3-1.89l-1.65-0.76c-1.39-0.64-2.96-0.63-4.42-0.18
				c-0.44,0.13-0.93,0.16-1.41,0.05c-0.74-0.17-1.35-0.62-1.73-1.23c-0.5-0.8-1.21-1.43-2.03-1.88c-0.37-0.2-0.76-0.37-1.16-0.5
				c-1.62-0.54-3.42-0.46-4.92,0.37c-0.8,0.44-1.75,0.6-2.71,0.39c-0.99-0.23-1.8-0.81-2.33-1.59c-0.92-1.35-2.22-2.41-3.81-2.84
				l-0.64-0.17c-2.04-0.55-4.25-0.28-6,0.89c-0.97,0.65-2.16,0.98-3.42,0.86c-1.43-0.13-2.66-0.82-3.52-1.83
				c-1.38-1.61-3.32-2.64-5.43-2.94l-0.57-0.08c-2.42-0.34-4.81,0.49-6.65,2.11c-1.34,1.17-3.11,1.85-5.03,1.79
				c-1.9-0.07-3.6-0.86-4.85-2.12c-1.44-1.44-3.43-2.2-5.45-2.06l-0.8,0.06c-2.32,0.15-4.44,1.44-5.6,3.46
				c-1.12,1.94-2.86,3.51-5.03,4.38C818.6,1104.38,815.4,1104.03,812.84,1102.59z"/>
			<path class="st0" d="M1067.23,1152.29c-1.33-9.72-7.52-17.53-15.75-21.37c-5.81-2.71-9.73-8.32-10.6-14.68l-0.19-1.39
				c-0.81-5.91,1.26-11.78,5.37-16.11c4.87-5.12,7.28-12.52,5.57-20.24c-1.09-4.94-3.86-9.22-7.63-12.29
				c-3.92-3.2-5.95-8.18-5.46-13.22l0.17-1.73c0.42-4.39,2.74-8.37,6.32-10.94c3.1-2.23,5.41-5.6,6.22-9.64
				c0.82-4.09-0.02-8.12-2.07-11.4c-2.81-4.5-3.76-9.91-2.18-14.98l0.37-1.2c1.37-4.4,4.25-8.2,8.19-10.58
				c2.47-1.49,4.37-3.9,5.16-6.91c0.69-2.64,0.39-5.31-0.66-7.61c-1.9-4.17-1.71-9,0.19-13.17l0.6-1.31
				c1.48-3.25,4.2-5.66,7.43-7.17c1.84-0.86,3.38-2.39,4.21-4.43c0.8-1.98,0.79-4.08,0.13-5.95c-1.25-3.49-0.81-7.37,0.92-10.65v0
				c1.38-2.62,3.49-4.87,6.22-6.02c1.42-0.59,2.6-1.73,3.23-3.26c0.41-1,0.52-2.05,0.38-3.04c-0.45-3.29,0.07-6.65,1.93-9.41
				l2.19-3.27c1.22-1.82,2.97-3.15,4.85-4.27c0.85-0.5,1.48-1.4,1.59-2.55c0.1-1.07-0.38-2.15-1.23-2.8
				c-1.8-1.37-4.24-0.6-5.03,1.33c-0.07,0.18-0.13,0.37-0.17,0.55c-0.57,2.73-1.53,5.36-3.08,7.68l-0.51,0.76
				c-2.22,3.3-5.45,5.67-9.05,7.35c-1.31,0.61-2.4,1.7-2.99,3.15c-0.43,1.06-0.53,2.18-0.35,3.23c0.53,3.1-0.1,6.29-1.57,9.08l0,0
				c-1.75,3.33-4.74,5.77-8.24,7.12c-2.08,0.8-3.83,2.43-4.73,4.65c-0.68,1.67-0.78,3.43-0.39,5.05c0.92,3.91,0.82,7.99-0.85,11.65
				l-0.29,0.63c-1.87,4.1-5.21,7.49-9.47,8.94c-3.52,1.2-6.38,4.08-7.39,7.95c-0.69,2.64-0.39,5.3,0.65,7.61
				c1.98,4.35,2.01,9.34,0.59,13.9v0c-1.66,5.36-5.64,9.6-10.72,12c-4.34,2.05-7.69,6.05-8.71,11.12
				c-1.03,5.11,0.55,10.14,3.82,13.71c3.02,3.3,4.68,7.61,4.25,12.07l-0.11,1.14c-0.5,5.13-3.5,9.78-8.15,12.03
				c-8.04,3.89-13.27,12.43-12.48,21.87c0.61,7.39,4.77,13.62,10.66,17.18c5.13,3.11,8.74,8.19,9.55,14.13l0.15,1.07
				c0.88,6.47-1.36,13.09-6.3,17.34c-7.03,6.04-10.86,15.48-9.31,25.31c2.46,15.61,17.51,26.11,33.18,22.76
				C1059.64,1180.1,1069.17,1166.49,1067.23,1152.29z"/>
			<path class="st0" d="M1107.47,1125.31c-0.02,0.07-0.03,0.15-0.05,0.22c-0.07,0.29-0.16,0.57-0.25,0.85
				c-2.52,7.98-10.35,12.97-18.53,12.02c-0.19-0.04-0.38-0.07-0.57-0.1c-0.35-0.04-0.71-0.1-1.06-0.17
				c-0.26-0.04-0.52-0.11-0.78-0.18l-0.12-0.03c-4.64-1.17-8.78-4.19-11.22-8.74c-3.57-6.61-2.47-14.47,2.14-19.85
				c2.67-3.1,3.39-7.44,2.12-11.33l-0.28-0.86c-1.11-3.38-3.67-5.99-6.91-7.43c-3.51-1.57-6.24-4.72-7.12-8.77
				c-0.86-4.01,0.31-7.98,2.82-10.84c1.71-1.95,2.96-4.25,3.59-6.7c0.45-1.75,0.6-3.59,0.4-5.42c-0.42-3.77-2.02-7.38-4.83-9.93
				c-1.49-1.33-2.55-3.18-2.89-5.32c-0.49-3.12,0.68-6.14,2.86-8.11c2.64-2.42,4.01-5.92,4.06-9.5l0.01-0.54
				c0.05-3.2-1.16-6.19-3.08-8.74c-0.79-1.07-1.27-2.37-1.31-3.8c-0.05-1.9,0.72-3.63,1.96-4.88c1.64-1.61,2.84-3.6,3.41-5.78
				c0.17-0.65,0.28-1.33,0.34-2c0.18-2.5-0.36-5.01-1.73-7.1c-0.46-0.7-0.74-1.55-0.76-2.46c-0.03-1.25,0.41-2.38,1.18-3.24
				c2.08-2.36,3.69-5.11,4.24-8.22l0.13-0.71c0.41-2.17,0.26-4.38-0.19-6.55c-0.03-0.15-0.05-0.31-0.05-0.47
				c-0.05-1.65,1.48-2.98,3.24-2.55c0.83,0.2,1.51,0.83,1.78,1.64c0.28,0.88,0.11,1.73-0.35,2.36c-1.02,1.41-1.87,2.94-2.18,4.64
				l-0.56,3.08c-0.48,2.59,0.21,5.19,1.58,7.44c0.41,0.68,0.67,1.48,0.68,2.34c0.03,1.31-0.47,2.52-1.31,3.4
				c-1.12,1.17-1.87,2.63-2.28,4.19c-0.18,0.7-0.29,1.43-0.35,2.15c-0.22,2.94,0.69,5.89,2.7,8.04c1.07,1.15,1.74,2.66,1.8,4.36
				c0.04,1.74-0.59,3.35-1.67,4.56c-1.87,2.11-3.08,4.72-3.13,7.56l-0.02,1.14c-0.05,3.64,1.33,7.21,4.03,9.63
				c1.5,1.35,2.55,3.19,2.89,5.33c0.39,2.43-0.23,4.79-1.56,6.65c-2.11,2.98-3,6.66-2.6,10.3l0.1,0.99
				c0.47,4.18,2.87,7.82,6.33,10.2c2.52,1.73,4.41,4.4,5.11,7.63c0.68,3.2,0.09,6.37-1.47,8.98c-1.78,3.01-2.21,6.64-1.13,9.96
				l0.43,1.31c1.23,3.81,4.28,6.79,8.15,7.88c3.71,1.05,7.07,3.28,9.43,6.53C1108.02,1114.94,1108.79,1120.41,1107.47,1125.31z"/>
			<path class="st0" d="M1135.59,1086.32c0,0.04,0.01,0.09,0.01,0.13c0,0.17,0,0.34,0,0.52c-0.15,4.86-3.75,8.89-8.47,9.65
				c-0.11,0.01-0.22,0.02-0.34,0.04c-0.2,0.03-0.41,0.05-0.62,0.07c-0.15,0.02-0.31,0.02-0.46,0.02l-0.07,0
				c-2.78,0.08-5.57-0.96-7.65-3.12c-3.04-3.14-3.66-7.7-1.93-11.44c1.01-2.16,0.72-4.7-0.6-6.67l-0.29-0.44
				c-1.15-1.72-3-2.77-5.04-3.07c-2.21-0.32-4.24-1.65-5.37-3.78c-1.11-2.11-1.09-4.51-0.13-6.51c0.65-1.36,0.98-2.84,0.96-4.31
				c-0.02-1.05-0.23-2.1-0.63-3.1c-0.83-2.04-2.29-3.81-4.27-4.79c-1.04-0.51-1.93-1.38-2.46-2.52c-0.77-1.67-0.59-3.54,0.32-4.99
				c1.1-1.77,1.31-3.94,0.77-5.96l-0.08-0.31c-0.48-1.8-1.62-3.28-3.1-4.4c-0.61-0.47-1.09-1.12-1.33-1.92
				c-0.33-1.06-0.17-2.15,0.33-3.04c0.67-1.16,1.02-2.46,1-3.77c-0.01-0.39-0.05-0.79-0.13-1.17c-0.29-1.43-0.99-2.74-2.09-3.7
				c-0.37-0.32-0.66-0.75-0.81-1.26c-0.22-0.69-0.15-1.4,0.15-2c0.79-1.65,1.26-3.44,1.08-5.27l-0.04-0.42
				c-0.12-1.28-0.54-2.49-1.14-3.63c-0.04-0.08-0.08-0.16-0.1-0.25c-0.29-0.92,0.36-1.9,1.41-1.94c0.49-0.02,0.98,0.23,1.26,0.63
				c0.29,0.45,0.33,0.95,0.18,1.38c-0.35,0.95-0.58,1.94-0.49,2.94l0.17,1.81c0.14,1.53,0.93,2.87,2.06,3.92
				c0.34,0.32,0.61,0.72,0.75,1.2c0.22,0.73,0.13,1.48-0.2,2.11c-0.44,0.83-0.63,1.77-0.61,2.7c0.01,0.42,0.06,0.85,0.15,1.26
				c0.34,1.68,1.31,3.19,2.78,4.07c0.78,0.47,1.4,1.22,1.69,2.15c0.3,0.97,0.2,1.97-0.21,2.81c-0.71,1.48-0.98,3.13-0.56,4.72
				l0.17,0.64c0.54,2.04,1.88,3.82,3.77,4.75c1.05,0.52,1.93,1.39,2.46,2.53c0.6,1.3,0.62,2.71,0.18,3.97
				c-0.71,2-0.63,4.2,0.17,6.17l0.21,0.54c0.92,2.27,2.84,3.92,5.15,4.71c1.68,0.57,3.16,1.77,4.06,3.46
				c0.89,1.68,1.05,3.55,0.59,5.26c-0.52,1.97-0.19,4.06,0.94,5.75l0.45,0.67c1.29,1.94,3.46,3.12,5.8,3.12
				c2.24,0,4.47,0.72,6.31,2.17C1134.26,1080.43,1135.56,1083.37,1135.59,1086.32z"/>
		</g>
	</g>
	<path class="st1" d="M1365.08,913.37l-47.93,130.69h-31.83l-47.93-130.69h28.09l35.95,103.92l35.76-103.92H1365.08z"/>
	<path class="st1" d="M1380.34,963.92c4.18-8.11,9.86-14.35,17.04-18.72c7.18-4.37,15.2-6.55,24.06-6.55
		c7.74,0,14.51,1.56,20.32,4.68c5.8,3.12,10.45,7.05,13.95,11.8v-14.79h26.4v103.73h-26.4v-15.17c-3.37,4.87-8.02,8.89-13.95,12.08
		c-5.93,3.18-12.76,4.78-20.5,4.78c-8.74,0-16.7-2.25-23.87-6.74c-7.18-4.49-12.86-10.83-17.04-19c-4.18-8.17-6.27-17.57-6.27-28.18
		C1374.07,981.34,1376.16,972.04,1380.34,963.92z M1451.96,975.81c-2.5-4.56-5.87-8.05-10.11-10.49c-4.25-2.43-8.8-3.65-13.67-3.65
		s-9.36,1.19-13.48,3.56c-4.12,2.37-7.46,5.84-10.02,10.39c-2.56,4.56-3.84,9.96-3.84,16.2c0,6.24,1.28,11.7,3.84,16.38
		c2.56,4.68,5.93,8.27,10.11,10.77c4.18,2.5,8.64,3.75,13.39,3.75c4.87,0,9.42-1.22,13.67-3.65c4.24-2.43,7.61-5.93,10.11-10.48
		c2.5-4.56,3.74-10.02,3.74-16.38C1455.7,985.83,1454.46,980.37,1451.96,975.81z"/>
	<path class="st1" d="M1547.17,943.52c5.43-3.12,11.64-4.68,18.63-4.68v27.52h-6.93c-8.24,0-14.45,1.94-18.63,5.8
		c-4.18,3.87-6.27,10.61-6.27,20.22v51.68h-26.21V940.33h26.21v16.1C1537.34,950.94,1541.74,946.64,1547.17,943.52z"/>
	<path class="st1" d="M1644.44,943.23c5.86,3.06,10.48,7.02,13.85,11.89v-14.79h26.4v104.48c0,9.61-1.94,18.19-5.8,25.75
		c-3.87,7.55-9.68,13.54-17.41,17.97c-7.74,4.43-17.1,6.65-28.09,6.65c-14.73,0-26.81-3.43-36.23-10.3
		c-9.43-6.87-14.76-16.23-16.01-28.09h26.03c1.37,4.74,4.34,8.52,8.89,11.33c4.55,2.81,10.08,4.21,16.57,4.21
		c7.61,0,13.79-2.28,18.54-6.83c4.74-4.56,7.11-11.45,7.11-20.69v-16.1c-3.37,4.87-8.02,8.93-13.95,12.17
		c-5.93,3.24-12.7,4.87-20.32,4.87c-8.74,0-16.73-2.25-23.97-6.74c-7.24-4.49-12.95-10.83-17.13-19
		c-4.18-8.17-6.27-17.57-6.27-28.18c0-10.49,2.09-19.78,6.27-27.9c4.18-8.11,9.86-14.35,17.04-18.72c7.18-4.37,15.2-6.55,24.06-6.55
		C1631.77,938.65,1638.57,940.18,1644.44,943.23z M1654.55,975.81c-2.5-4.56-5.87-8.05-10.11-10.49c-4.25-2.43-8.8-3.65-13.67-3.65
		c-4.87,0-9.36,1.19-13.48,3.56c-4.12,2.37-7.46,5.84-10.02,10.39c-2.56,4.56-3.84,9.96-3.84,16.2c0,6.24,1.28,11.7,3.84,16.38
		c2.56,4.68,5.93,8.27,10.11,10.77c4.18,2.5,8.64,3.75,13.39,3.75c4.87,0,9.42-1.22,13.67-3.65c4.24-2.43,7.61-5.93,10.11-10.48
		c2.5-4.56,3.74-10.02,3.74-16.38C1658.3,985.83,1657.05,980.37,1654.55,975.81z"/>
	<path class="st1" d="M1709.88,963.92c4.18-8.11,9.86-14.35,17.04-18.72c7.18-4.37,15.2-6.55,24.06-6.55
		c7.74,0,14.51,1.56,20.32,4.68c5.8,3.12,10.45,7.05,13.95,11.8v-14.79h26.4v103.73h-26.4v-15.17c-3.37,4.87-8.02,8.89-13.95,12.08
		c-5.93,3.18-12.76,4.78-20.5,4.78c-8.74,0-16.7-2.25-23.87-6.74c-7.18-4.49-12.86-10.83-17.04-19c-4.18-8.17-6.27-17.57-6.27-28.18
		C1703.61,981.34,1705.7,972.04,1709.88,963.92z M1781.5,975.81c-2.5-4.56-5.87-8.05-10.11-10.49c-4.24-2.43-8.8-3.65-13.67-3.65
		c-4.87,0-9.36,1.19-13.48,3.56c-4.12,2.37-7.46,5.84-10.02,10.39c-2.56,4.56-3.84,9.96-3.84,16.2c0,6.24,1.28,11.7,3.84,16.38
		c2.56,4.68,5.93,8.27,10.11,10.77c4.18,2.5,8.64,3.75,13.39,3.75c4.87,0,9.42-1.22,13.67-3.65c4.24-2.43,7.61-5.93,10.11-10.48
		c2.5-4.56,3.74-10.02,3.74-16.38C1785.24,985.83,1783.99,980.37,1781.5,975.81z"/>
	<path class="st1" d="M1867.81,961.87v50.18c0,3.5,0.84,6.02,2.53,7.58c1.69,1.56,4.52,2.34,8.52,2.34h12.17v22.09h-16.48
		c-22.09,0-33.14-10.73-33.14-32.21v-49.99h-12.36v-21.53h12.36v-25.65h26.4v25.65h23.22v21.53H1867.81z"/>
	<path class="st1" d="M2005.62,1000.06h-75.83c0.62,7.49,3.24,13.36,7.86,17.6c4.62,4.25,10.3,6.37,17.04,6.37
		c9.74,0,16.66-4.18,20.78-12.55h28.27c-2.99,9.99-8.74,18.19-17.23,24.62c-8.49,6.43-18.91,9.64-31.27,9.64
		c-9.99,0-18.94-2.22-26.87-6.65c-7.93-4.43-14.11-10.7-18.54-18.82c-4.43-8.11-6.65-17.47-6.65-28.09
		c0-10.73,2.18-20.16,6.55-28.27c4.37-8.11,10.48-14.35,18.35-18.72c7.86-4.37,16.91-6.55,27.15-6.55c9.86,0,18.69,2.12,26.49,6.37
		c7.8,4.24,13.86,10.27,18.16,18.07c4.31,7.8,6.46,16.76,6.46,26.87C2006.37,993.7,2006.12,997.07,2005.62,1000.06z M1979.22,982.46
		c-0.12-6.74-2.56-12.14-7.3-16.2c-4.75-4.06-10.55-6.09-17.41-6.09c-6.49,0-11.95,1.97-16.38,5.9c-4.43,3.93-7.15,9.39-8.15,16.38
		H1979.22z"/>
	<path class="st0" d="M2073.68,963.92c4.18-8.11,9.86-14.35,17.04-18.72c7.18-4.37,15.2-6.55,24.06-6.55
		c7.74,0,14.51,1.56,20.32,4.68c5.8,3.12,10.45,7.05,13.95,11.8v-14.79h26.4v103.73h-26.4v-15.17c-3.37,4.87-8.02,8.89-13.95,12.08
		c-5.93,3.18-12.76,4.78-20.5,4.78c-8.74,0-16.7-2.25-23.87-6.74c-7.18-4.49-12.86-10.83-17.04-19c-4.18-8.17-6.27-17.57-6.27-28.18
		C2067.41,981.34,2069.5,972.04,2073.68,963.92z M2145.3,975.81c-2.5-4.56-5.87-8.05-10.11-10.49c-4.24-2.43-8.8-3.65-13.67-3.65
		c-4.87,0-9.36,1.19-13.48,3.56c-4.12,2.37-7.46,5.84-10.02,10.39c-2.56,4.56-3.84,9.96-3.84,16.2c0,6.24,1.28,11.7,3.84,16.38
		c2.56,4.68,5.93,8.27,10.11,10.77c4.18,2.5,8.64,3.75,13.39,3.75c4.87,0,9.42-1.22,13.67-3.65c4.24-2.43,7.61-5.93,10.11-10.48
		c2.5-4.56,3.74-10.02,3.74-16.38C2149.04,985.83,2147.79,980.37,2145.3,975.81z"/>
	<rect x="2201.1" y="940.33" class="st0" width="26.21" height="103.73"/>
	<rect x="2019.58" y="1020.92" class="st1" width="25.4" height="23.14"/>
	<polygon class="st0" points="2226.9,927.96 2201.5,927.96 2201.5,904.82 2226.9,927.96 	"/>
</g>
</svg>
